<?xml version="1.0" standalone="no"?>
<!DOCTYPE svg PUBLIC "-//W3C//DTD SVG 20010904//EN"
 "http://www.w3.org/TR/2001/REC-SVG-20010904/DTD/svg10.dtd">
<svg version="1.0" xmlns="http://www.w3.org/2000/svg"
 width="192.000000pt" height="192.000000pt" viewBox="0 0 192.000000 192.000000"
 preserveAspectRatio="xMidYMid meet">
<metadata>
Created by potrace 1.14, written by Peter Selinger 2001-2017
</metadata>
<g transform="translate(0.000000,192.000000) scale(0.100000,-0.100000)"
fill="#000000" stroke="none">
<path d="M0 1565 c0 -277 3 -355 13 -356 65 -7 137 -3 141 8 3 7 13 13 23 13
15 0 15 -2 -3 -14 -18 -14 -18 -15 11 -21 50 -11 52 -15 5 -11 -25 2 -65 -1
-89 -7 -36 -8 -48 -7 -72 7 l-29 17 0 -75 c0 -47 4 -76 11 -76 5 0 7 -5 3 -12
-4 -6 -3 -8 4 -4 6 3 17 0 25 -9 13 -13 16 -13 22 2 5 14 8 15 14 4 6 -9 11
-10 15 -2 11 17 22 13 34 -11 10 -21 11 -21 9 -3 -2 17 3 20 31 17 17 -1 32 2
32 8 0 5 -7 7 -15 4 -16 -7 -19 4 -7 24 7 10 14 10 36 -2 18 -9 23 -16 14 -20
-7 -3 -2 -3 12 -1 14 3 50 7 80 9 78 5 106 14 119 39 10 19 11 20 6 2 -4 -17
0 -20 30 -21 19 0 32 3 29 8 -3 4 10 8 30 8 19 0 42 3 50 6 12 5 15 2 10 -12
-5 -17 -4 -17 8 -4 7 8 22 17 33 18 15 3 12 -3 -13 -26 -18 -17 -32 -37 -32
-46 0 -24 -51 -68 -81 -70 -15 0 -25 -4 -22 -9 2 -4 9 -5 14 -2 5 4 9 2 9 -3
0 -5 -9 -12 -21 -15 -12 -3 -18 -10 -14 -16 3 -6 1 -11 -4 -11 -6 0 -14 -1
-18 -2 -3 -2 -7 5 -9 15 -1 9 4 17 12 17 8 0 14 4 14 10 0 5 -7 7 -15 4 -8 -4
-15 -1 -15 5 0 7 -9 5 -25 -5 -14 -9 -25 -12 -25 -6 0 5 11 17 24 25 33 22 58
48 52 55 -3 3 -15 -3 -26 -13 -11 -10 -20 -15 -20 -11 0 4 -7 0 -16 -9 -13
-12 -19 -13 -24 -4 -6 8 -11 5 -19 -10 -7 -12 -17 -19 -22 -15 -6 4 -2 14 10
25 29 27 26 33 -6 12 -17 -10 -23 -11 -15 -3 20 22 14 35 -7 16 -11 -10 -24
-15 -29 -12 -15 9 -42 -4 -42 -21 0 -12 -2 -12 -16 1 -21 22 -27 20 -18 -6 6
-20 5 -21 -9 -10 -14 12 -19 10 -39 -7 -19 -18 -23 -19 -31 -6 -4 8 -5 20 -1
27 5 8 2 9 -9 5 -10 -4 -28 -2 -42 3 -19 7 -25 6 -25 -5 0 -20 -21 -30 -31
-14 -5 8 -9 10 -9 4 0 -5 -5 -3 -10 5 -6 10 -10 -156 -10 -477 l0 -493 960 0
960 0 0 960 0 960 -960 0 -960 0 0 -355z m824 -190 c3 -8 1 -15 -4 -15 -6 0
-10 7 -10 15 0 8 2 15 4 15 2 0 6 -7 10 -15z m-728 -60 c-22 -17 -81 -21 -71
-5 4 6 10 8 14 6 4 -3 21 -1 37 4 40 12 42 11 20 -5z m834 -19 c0 -7 24 -22
56 -32 55 -19 73 -36 43 -42 -8 -1 -32 9 -53 23 -30 20 -41 23 -52 14 -11 -9
-14 -6 -14 20 0 17 5 31 10 31 6 0 10 -6 10 -14z m-650 -20 c0 -7 -9 -16 -20
-19 -17 -4 -18 -2 -9 14 11 22 29 25 29 5z m1030 4 c14 -1 -2 -7 -35 -14 -103
-22 -140 -28 -133 -20 4 4 0 13 -10 21 -16 13 -15 14 8 10 14 -3 34 -2 45 3
11 4 38 6 60 5 22 -2 51 -4 65 -5z m-620 -52 c0 -19 -16 -5 -17 14 -2 18 0 20
7 8 5 -8 10 -18 10 -22z m440 2 c0 -12 -8 -12 -35 0 -18 8 -17 9 8 9 15 1 27
-3 27 -9z m-530 -15 c55 -13 55 -16 1 -19 -16 0 -27 2 -25 6 2 4 -15 11 -38
16 -27 6 -34 10 -18 11 14 0 50 -6 80 -14z m188 7 c10 9 15 9 20 1 4 -6 22
-15 40 -20 43 -11 41 -27 -5 -29 -21 -1 -41 -3 -45 -3 -4 -1 -16 -11 -27 -23
l-21 -21 10 33 c5 19 7 36 5 39 -3 2 -5 -1 -5 -7 0 -7 -4 -12 -10 -12 -5 0 -6
8 -3 18 6 15 5 16 -13 2 -10 -8 -16 -10 -12 -6 4 5 0 15 -10 22 -14 11 -11 11
23 4 27 -6 44 -5 53 2z m182 -27 c0 -7 -30 -13 -34 -7 -3 4 4 9 15 9 10 1 19
0 19 -2z m105 -5 c4 -6 -5 -10 -24 -8 -17 1 -31 6 -31 10 0 12 48 10 55 -2z
m74 1 c2 0 -2 -7 -8 -15 -14 -17 -48 -10 -48 9 0 11 29 14 56 6z m-759 -11 c0
-5 -4 -10 -10 -10 -5 0 -10 5 -10 10 0 6 5 10 10 10 6 0 10 -4 10 -10z m921
-26 c45 -23 60 -43 53 -70 -7 -27 19 -56 43 -47 13 5 34 -36 26 -49 -2 -5 9
-13 24 -20 45 -20 64 -47 52 -71 -9 -16 -13 -17 -20 -6 -6 9 -7 0 -3 -25 5
-28 4 -37 -5 -32 -6 4 -9 11 -6 16 3 4 -2 10 -10 14 -18 6 -18 5 -6 -28 7 -16
7 -26 -1 -28 -14 -5 -19 -56 -6 -64 6 -4 6 -9 -2 -14 -14 -9 -41 10 -33 22 2
5 6 26 9 47 4 37 2 41 -35 62 -25 14 -37 27 -34 36 6 16 -30 54 -55 58 -9 1
-16 10 -16 19 1 9 -2 16 -7 16 -5 0 -9 -5 -9 -11 0 -8 -4 -8 -15 1 -8 6 -23 9
-35 5 -15 -5 -20 -2 -20 12 0 15 -2 16 -10 3 -7 -11 -10 -11 -10 -2 0 21 -23
39 -44 34 -12 -3 -17 -1 -13 6 4 5 1 13 -5 16 -10 3 -9 8 4 15 10 7 14 19 10
33 -4 17 -2 20 12 15 10 -4 22 -7 27 -7 5 0 9 -7 9 -16 0 -8 4 -13 9 -10 14 9
91 -36 91 -53 0 -14 1 -14 10 -1 8 12 10 11 10 -7 0 -13 5 -23 11 -23 5 0 7 5
4 10 -3 6 -1 10 4 10 15 0 14 -16 -4 -33 -13 -13 -12 -16 9 -21 14 -3 29 -19
36 -36 16 -38 45 -57 54 -34 11 29 6 41 -36 87 -72 78 -70 75 -48 82 23 7 27
35 5 35 -8 0 -22 11 -31 25 -16 24 -55 42 -81 37 -7 -2 -13 2 -13 9 0 14 61 4
101 -17z m117 -22 c-10 -2 -18 -10 -18 -18 0 -17 20 -19 21 -1 0 9 2 9 6 -1 2
-6 10 -9 16 -5 7 3 9 2 4 -2 -4 -5 0 -16 8 -25 14 -15 13 -17 -3 -15 -9 0 -23
4 -30 8 -8 6 -10 3 -5 -8 5 -15 3 -15 -16 -4 -11 8 -21 21 -22 29 0 8 -2 24
-4 36 -4 18 -1 20 28 15 19 -3 25 -6 15 -9z m-468 -20 c0 -15 -2 -15 -10 -2
-13 20 -13 33 0 25 6 -3 10 -14 10 -23z m-880 -37 c14 -19 14 -19 -2 -6 -10 7
-18 18 -18 24 0 6 1 8 3 6 1 -2 9 -13 17 -24z m916 -13 c-4 -3 -12 0 -19 7 -9
9 -9 14 3 21 11 7 16 5 18 -6 2 -9 1 -18 -2 -22z m-240 13 c20 -8 39 -13 44
-10 4 2 15 -2 25 -9 13 -9 16 -18 10 -32 -8 -18 -9 -17 -12 4 -3 12 -10 22
-16 21 -7 -1 -20 1 -29 5 -9 4 -25 6 -35 3 -14 -3 -12 -6 12 -17 17 -7 25 -14
17 -17 -7 -3 -19 0 -26 6 -16 13 -27 4 -19 -15 3 -8 20 -14 42 -14 25 0 32 -3
22 -9 -8 -5 -20 -7 -27 -4 -8 3 -18 -5 -23 -19 -5 -13 -16 -30 -25 -37 -14
-11 -16 -11 -16 4 0 11 -5 15 -15 11 -8 -3 -15 -1 -15 5 0 6 -7 8 -17 5 -9 -4
-19 -2 -23 3 -4 7 -16 5 -33 -4 -15 -7 -27 -11 -27 -7 0 3 -7 -3 -16 -14 -9
-10 -7 -3 5 16 11 19 25 34 31 32 5 -1 9 1 8 5 -1 5 4 23 12 41 14 30 40 40
83 33 5 -1 6 3 3 8 -5 8 3 15 22 20 1 1 19 -6 38 -14z m126 3 c-9 -9 -15 -9
-24 0 -9 9 -7 12 12 12 19 0 21 -3 12 -12z m211 5 c-7 -2 -19 -2 -25 0 -7 3
-2 5 12 5 14 0 19 -2 13 -5z m-773 -119 c0 -7 -4 -16 -10 -19 -5 -3 -10 0 -10
7 0 11 -2 10 -9 0 -6 -11 -9 -9 -13 6 -4 15 0 20 18 20 13 0 24 -6 24 -14z
m700 6 c-8 -5 -22 -9 -30 -9 -10 0 -8 3 5 9 27 12 43 12 25 0z m-111 -41 c45
-16 28 -26 -54 -32 -38 -3 -62 -3 -52 0 15 4 21 15 18 36 -2 11 52 9 88 -4z
m98 5 c-3 -3 -12 -4 -19 -1 -8 3 -5 6 6 6 11 1 17 -2 13 -5z m-567 -19 c0 -2
-10 -10 -22 -16 -21 -11 -22 -11 -9 4 13 16 31 23 31 12z m337 -15 c1 -15 -4
-20 -26 -20 -15 0 -31 -3 -37 -7 -5 -5 3 4 18 20 34 32 43 34 45 7z m-197 5
c0 -2 -10 -9 -22 -15 -22 -11 -22 -10 -4 4 21 17 26 19 26 11z m648 -4 c8 -4
12 -21 10 -36 -2 -22 -8 -29 -28 -29 -14 -1 -35 -11 -48 -24 l-22 -22 -21 21
c-26 26 -19 69 11 69 10 0 22 5 25 10 4 6 10 8 14 6 4 -3 13 -1 21 5 18 11 22
11 38 0z m-139 -20 c7 -5 9 -11 5 -14 -5 -3 -15 1 -22 9 -14 16 -5 18 17 5z
m-554 -21 c-3 -5 -16 -10 -28 -9 -21 0 -21 1 -2 9 28 12 37 12 30 0z m-252
-39 c-3 -14 -17 -22 -45 -26 -22 -4 -49 -16 -60 -27 -14 -14 -23 -17 -27 -9
-4 6 -16 9 -27 6 -19 -7 -19 -6 44 45 8 7 12 7 12 1 0 -6 13 -9 30 -8 16 1 30
6 30 11 0 4 6 6 14 3 8 -3 17 1 20 9 8 21 15 17 9 -5z m790 -28 c-7 -2 -19 -2
-25 0 -7 3 -2 5 12 5 14 0 19 -2 13 -5z m217 -2 c0 -5 -9 -11 -20 -14 -22 -6
-28 8 -7 16 19 8 27 8 27 -2z m-86 -27 c5 -12 2 -15 -10 -10 -8 3 -25 1 -36
-5 -15 -8 -19 -8 -14 0 4 6 1 12 -6 12 -7 1 3 5 22 9 19 4 36 8 36 9 1 0 5 -6
8 -15z m-1174 -9 c0 -8 -4 -15 -10 -15 -5 0 -7 7 -4 15 4 8 8 15 10 15 2 0 4
-7 4 -15z m67 -1 c-3 -3 -12 -4 -19 -1 -8 3 -5 6 6 6 11 1 17 -2 13 -5z m1166
-42 c-13 -2 -23 -8 -23 -13 0 -5 -11 -7 -24 -3 -15 3 -27 1 -32 -8 -4 -7 -4
-10 0 -6 4 3 21 2 37 -2 28 -8 86 9 74 22 -11 11 131 7 158 -4 17 -7 32 -7 35
-2 4 5 12 10 17 11 6 1 19 5 30 8 11 4 5 -3 -14 -14 -18 -12 -31 -25 -27 -28
7 -7 -13 -33 -25 -33 -5 0 -9 5 -9 10 0 6 8 10 17 10 15 0 14 2 -3 14 -17 13
-22 13 -42 0 -15 -10 -42 -14 -73 -13 -57 3 -68 -6 -70 -61 l-1 -35 -9 32
c-10 35 -38 56 -62 47 -15 -5 -47 20 -47 36 0 5 -7 7 -15 4 -9 -4 -15 0 -15
10 0 8 18 23 42 34 39 17 45 17 73 3 28 -15 29 -16 8 -19z m-1160 13 c-6 17
-4 18 9 8 8 -7 17 -12 19 -10 2 1 -2 -3 -9 -9 -7 -6 -10 -20 -6 -30 5 -17 4
-17 -7 1 -7 11 -18 24 -26 28 -7 5 -11 13 -7 18 3 6 12 3 20 -8 13 -17 14 -17
7 2z m1017 -65 c0 -5 -7 -10 -16 -10 -8 0 -12 5 -9 10 3 6 10 10 16 10 5 0 9
-4 9 -10z m-122 -57 c7 -7 9 -13 5 -13 -5 0 -22 15 -39 32 -23 26 -24 29 -4
13 13 -11 30 -26 38 -32z m97 -33 c8 -13 -5 -13 -25 0 -13 8 -13 10 2 10 9 0
20 -4 23 -10z"/>
<path d="M1320 1136 c0 -2 8 -10 18 -17 15 -13 16 -12 3 4 -13 16 -21 21 -21
13z"/>
<path d="M643 1012 c13 -13 20 -13 29 -4 7 7 8 12 3 13 -6 0 -19 2 -29 4 -18
3 -18 2 -3 -13z"/>
<path d="M525 1060 c-3 -5 -2 -10 4 -10 5 0 13 5 16 10 3 6 2 10 -4 10 -5 0
-13 -4 -16 -10z"/>
<path d="M156 975 c-3 -8 -1 -15 4 -15 6 0 10 7 10 15 0 8 -2 15 -4 15 -2 0
-6 -7 -10 -15z"/>
</g>
</svg>
